<svg width="22" height="22" viewBox="0 0 22 22" fill="none" xmlns="http://www.w3.org/2000/svg">
<path d="M13.2003 6.29974C13.0171 6.48666 12.9145 6.73798 12.9145 6.99974C12.9145 7.26149 13.0171 7.51281 13.2003 7.69974L14.8003 9.29974C14.9873 9.48296 15.2386 9.58559 15.5003 9.58559C15.7621 9.58559 16.0134 9.48296 16.2003 9.29974L19.9703 5.52974C20.4732 6.64092 20.6254 7.87897 20.4068 9.07888C20.1882 10.2788 19.6091 11.3836 18.7466 12.246C17.8842 13.1084 16.7794 13.6876 15.5795 13.9062C14.3796 14.1248 13.1415 13.9726 12.0303 13.4697L5.12034 20.3797C4.72252 20.7776 4.18295 21.0011 3.62034 21.0011C3.05773 21.0011 2.51817 20.7776 2.12034 20.3797C1.72252 19.9819 1.49902 19.4423 1.49902 18.8797C1.49902 18.3171 1.72252 17.7776 2.12034 17.3797L9.03034 10.4697C8.52751 9.35855 8.37526 8.1205 8.59389 6.92059C8.81251 5.72068 9.39163 4.61589 10.2541 3.75346C11.1165 2.89102 12.2213 2.3119 13.4212 2.09328C14.6211 1.87465 15.8592 2.0269 16.9703 2.52974L13.2103 6.28974L13.2003 6.29974Z" stroke="black" stroke-width="2" stroke-linecap="round" stroke-linejoin="round"/>
</svg>
