<svg width="24" height="24" viewBox="0 0 24 24" fill="none" xmlns="http://www.w3.org/2000/svg">
<path d="M23.4965 12C23.4965 18.3561 18.3979 23.5 12.1193 23.5C5.84075 23.5 0.742188 18.3561 0.742188 12C0.742188 5.64386 5.84075 0.5 12.1193 0.5C18.3979 0.5 23.4965 5.64386 23.4965 12Z" fill="#EFEFF4" stroke="#0A84FF"/>
<path d="M17.0491 12.895C16.9713 13.7461 16.6551 14.5572 16.1377 15.2334C15.6202 15.9096 14.9229 16.4229 14.1272 16.7133C13.3315 17.0036 12.4705 17.0591 11.6448 16.873C10.8191 16.687 10.0629 16.2673 9.46468 15.6629C8.86649 15.0585 8.45103 14.2945 8.26691 13.4602C8.0828 12.626 8.13765 11.756 8.42505 10.9521C8.71245 10.1483 9.22051 9.44368 9.88978 8.92088C10.5591 8.39807 11.3618 8.07865 12.2042 8C11.711 8.67413 11.4737 9.50472 11.5354 10.3407C11.5971 11.1767 11.9538 11.9625 12.5405 12.5553C13.1272 13.1481 13.905 13.5084 14.7324 13.5707C15.5598 13.6331 16.3819 13.3933 17.0491 12.895V12.895Z" stroke="#0A84FF" stroke-linecap="round" stroke-linejoin="round"/>
</svg>
